# xmcd
#
# Track frame offsets:
#	150
#	13848
#	25930
#	42951
#	56613
#	74509
#	90913
#	103792
#	120642
#	135454
#	150337
#	165292
#
# Disc length: 2337 seconds
# Revision: 1
# Processed by: cddbd v1.5.2PL0 Copyright (c) Steve Scherf et al.
# Submitted via: dBpowerAMP V12.0
#
DISCID=8e091f0c
DTITLE=Slaid Cleaves - Ghost On The Car Radio
DYEAR=2017
DGENRE=Americana
TTITLE0=Already Gone
TTITLE1=Drunken Barber's Hand
TTITLE2=If I Had A Heart
TTITLE3=Little Guys
TTITLE4=Primer Gray
TTITLE5=Hickory
TTITLE6=Take Home Pay
TTITLE7=The Old Guard
TTITLE8=So Good To Me
TTITLE9=To Be Held
TTITLE10=Still Be Mine
TTITLE11=Junkyard
EXTD=
EXTT0=
EXTT1=
EXTT2=
EXTT3=
EXTT4=
EXTT5=
EXTT6=
EXTT7=
EXTT8=
EXTT9=
EXTT10=
EXTT11=
PLAYORDER=
